<svg width="80" height="74" viewBox="0 0 80 74" fill="none" xmlns="http://www.w3.org/2000/svg">
<path d="M77.409 27.737C77.4047 27.6334 77.3968 27.5289 77.3582 27.4264C77.3168 27.3151 77.2513 27.2221 77.1794 27.1367C77.1744 27.1309 77.1768 27.1218 77.1716 27.116L77.1558 27.0984C77.1522 27.0945 77.1491 27.0907 77.1455 27.0867L65.0589 13.4934C64.819 13.2256 64.453 13.1056 64.1063 13.1831L60.1518 14.0475L58.8488 12.6317C58.5724 12.3335 58.1483 12.2354 57.7677 12.3748L39.9611 19.09L22.2321 12.4039C21.8491 12.2632 21.4249 12.3615 21.151 12.6607L19.848 14.0765L15.8935 13.2121C15.5372 13.1298 15.1808 13.2534 14.9408 13.5225L2.85302 27.1173C2.84974 27.1206 2.84677 27.1245 2.84365 27.1279L2.82818 27.1453C2.82349 27.1506 2.82552 27.159 2.82083 27.1643C2.74771 27.25 2.68114 27.3437 2.63896 27.4556C2.60021 27.5598 2.59193 27.6662 2.58849 27.7717C2.58802 27.7839 2.57599 27.7925 2.57599 27.8046V31.6139C2.57599 32.0271 2.83286 32.3981 3.22083 32.5434L18.5685 38.3046L10.7618 44.5567C10.5266 44.7445 10.3885 45.0293 10.3885 45.3312V50.1221C10.3885 50.567 10.6843 50.9571 11.1133 51.0784C11.5399 51.191 11.998 51.019 12.2283 50.6409C13.8815 47.9418 16.9866 48.0739 17.1224 48.0896C17.4108 48.1126 17.6847 48.0012 17.886 47.8C20.1524 45.5287 22.6685 45.851 23.8125 46.1626C23.6671 47.337 23.003 49.7876 20.0385 51.0154C19.6772 51.1657 19.4374 51.5257 19.4252 51.9184C19.4204 52.0965 19.2265 56.3095 12.0102 57.9407C11.5447 58.045 11.2224 58.4643 11.2369 58.9395L11.4721 66.7253C11.4818 67.0985 11.7024 67.4343 12.0418 67.5931C12.1751 67.6573 12.3205 67.6876 12.4635 67.6876C12.6793 67.6876 12.8949 67.6173 13.0719 67.4792C13.0719 67.4792 35.9804 49.6723 39.9663 46.575C41.62 47.864 47.2761 52.2601 66.8575 67.4792C67.0344 67.6173 67.2502 67.6876 67.466 67.6876C67.6089 67.6876 67.7544 67.6573 67.8877 67.5931C68.2271 67.4343 68.4477 67.0985 68.4574 66.7253L68.6925 58.9395C68.7071 58.4643 68.3847 58.0451 67.9193 57.9407C60.703 56.3093 60.5091 52.0965 60.5043 51.9293C60.5018 51.5293 60.2594 51.1695 59.891 51.0154C56.9265 49.7865 56.2622 47.337 56.1169 46.1626C57.2586 45.8512 59.7747 45.5287 62.0435 47.8C62.2447 48.0012 62.5235 48.1126 62.8071 48.0896C62.938 48.0715 66.0479 47.9429 67.7011 50.6409C67.9314 51.0203 68.3871 51.196 68.8161 51.0784C69.2452 50.9571 69.541 50.567 69.541 50.1221V45.3312C69.541 45.0295 69.4029 44.7446 69.1677 44.5567L61.3586 38.3026L76.7789 32.5143C77.1668 32.3689 77.4238 31.9981 77.4238 31.5848V27.7756C77.4236 27.7612 77.4096 27.751 77.409 27.737ZM16.039 15.2762L18.2913 15.7679L9.27364 25.5659C9.25818 25.5828 9.25614 25.6067 9.24177 25.6243C9.16583 25.7181 9.10802 25.822 9.07005 25.9393C9.05505 25.9862 9.04958 26.031 9.04161 26.0793C9.03255 26.1332 9.00927 26.182 9.00927 26.2385V28.7845L5.27443 27.3832L16.039 15.2762ZM13.3968 64.712L13.2441 59.681C19.7088 57.9551 21.0566 54.1568 21.3377 52.6067C25.9627 50.3475 25.8438 45.6426 25.8341 45.4365C25.8219 45.062 25.5966 44.7264 25.2572 44.57C25.0657 44.4864 20.6783 42.5301 16.7855 46.1043C15.9322 46.1298 14.0585 46.3418 12.3763 47.5842V45.8075L20.7305 39.116L37.9919 45.5956C35.6846 47.3885 29.5858 52.1287 13.3968 64.712ZM38.9672 43.8404L21.1436 37.1495C20.9988 37.0506 20.8397 36.9851 20.6696 36.9717L4.5638 30.9254V29.2379L38.9672 42.144V43.8404ZM38.9672 40.0231L10.9969 29.5303V27.6592L38.9672 37.8887V40.0231ZM38.9672 35.7746L11.7411 25.817L22.1569 14.4995L38.9672 20.8395V35.7746ZM63.9608 15.2471L74.7252 27.3543L70.9904 28.7556V26.2084C70.9904 26.1517 70.9672 26.1028 70.958 26.0489C70.9502 26.0007 70.9449 25.956 70.9299 25.9095C70.8919 25.792 70.8338 25.6878 70.7579 25.5937C70.7438 25.5762 70.7416 25.5525 70.7261 25.5357L61.7086 15.7389L63.9608 15.2471ZM40.9549 20.8393L57.8427 14.4703L68.2585 25.7865L40.9549 35.7745V20.8393ZM40.9549 37.8895L69.0027 27.629V29.5012L40.9549 40.0231V37.8895ZM67.5532 45.8075V47.5842C65.871 46.3418 63.9972 46.1298 63.144 46.1043C59.2535 42.5314 54.8661 44.4864 54.6722 44.57C54.3329 44.7264 54.1074 45.062 54.0954 45.4365C54.0857 45.6426 53.9669 50.3475 58.5918 52.6067C58.873 54.1568 60.2207 57.9551 66.6854 59.681L66.5327 64.712C61.6302 60.9007 46.5022 49.1434 41.9355 45.5937L59.1966 39.1143L67.5532 45.8075ZM75.436 30.8964L59.2505 36.9723C59.086 36.9865 58.9325 37.0501 58.7916 37.1445L40.9549 43.8403V42.1439L75.436 29.2085V30.8964Z" fill="black"/>
<path d="M43.185 25.5138C43.2989 25.5138 43.4128 25.4945 43.5267 25.4532L59.0183 19.7848C59.5322 19.597 59.7964 19.026 59.6097 18.5121C59.4206 17.9959 58.8558 17.734 58.3347 17.9207L42.8431 23.5891C42.3292 23.777 42.065 24.3479 42.2517 24.8618C42.3996 25.2654 42.7802 25.5138 43.185 25.5138Z" fill="black"/>
<path d="M43.9244 28.3367L60.6764 22.1931C61.1903 22.004 61.4545 21.4343 61.2678 20.9193C61.0788 20.4042 60.4994 20.1461 59.9928 20.329L43.2408 26.4726C42.7269 26.6617 42.4627 27.2314 42.6494 27.7464C42.7972 28.1487 43.1778 28.3972 43.5827 28.3972C43.6966 28.3973 43.813 28.3779 43.9244 28.3367Z" fill="black"/>
<path d="M63.2022 23.7336C63.0155 23.2196 62.4362 22.9603 61.9295 23.1445L43.9412 29.7559C43.425 29.945 43.1631 30.5157 43.3522 31.0309C43.4976 31.432 43.8781 31.6806 44.283 31.6806C44.3969 31.6806 44.5133 31.6612 44.6247 31.62L62.613 25.0086C63.1294 24.8195 63.3912 24.2486 63.2022 23.7336Z" fill="black"/>
<path d="M20.3658 18.5255C20.179 19.0394 20.4433 19.6102 20.9572 19.7982L36.4487 25.4666C36.5626 25.5079 36.6765 25.5272 36.7904 25.5272C37.1953 25.5272 37.5758 25.2775 37.7237 24.8752C37.9104 24.3613 37.6462 23.7905 37.1323 23.6026L21.6408 17.9341C21.122 17.7463 20.5548 18.0093 20.3658 18.5255Z" fill="black"/>
<path d="M36.7348 26.4858L19.9827 20.3422C19.4616 20.1519 18.8968 20.4161 18.7077 20.9325C18.521 21.4477 18.7852 22.0172 19.2991 22.2063L36.0512 28.3498C36.1651 28.3911 36.279 28.4105 36.3929 28.4105C36.7977 28.4105 37.1782 28.162 37.3262 27.7597C37.5129 27.2445 37.2487 26.6748 36.7348 26.4858Z" fill="black"/>
<path d="M36.0321 29.7692L18.0462 23.1578C17.5348 22.9662 16.9602 23.233 16.7735 23.7469C16.5845 24.262 16.8462 24.8328 17.3626 25.0219L35.3485 31.6333C35.4601 31.6745 35.5763 31.6939 35.6902 31.6939C36.0951 31.6939 36.4755 31.4455 36.621 31.0442C36.8101 30.5292 36.5484 29.9583 36.0321 29.7692Z" fill="black"/>
</svg>
