<svg width="81" height="68" viewBox="0 0 81 68" fill="none" xmlns="http://www.w3.org/2000/svg">
<path d="M76.1249 28C75.9999 25.875 74.2499 24.25 71.9999 24.25C70.8749 24.25 69.8749 24.625 69.1249 25.25C68.9999 21 68.8749 17.125 68.7499 14.375C68.6249 12.5 66.9999 11 64.9999 11C63.9999 11 63.1249 11.375 62.3749 12C62.2499 12.125 62.2499 12.25 62.1249 12.25C62.1249 11.875 62.1249 11.5 62.1249 11.25V10.25C61.9999 8.25002 60.2499 6.75002 58.1249 6.75002C57.1249 6.75002 56.1249 7.12502 55.2499 7.87502C54.4999 8.62502 53.9999 9.50002 53.9999 10.5V12.875C53.3749 12.25 52.4999 11.875 51.4999 11.875C50.6249 11.875 49.7499 12.25 48.9999 12.875C48.3749 13.5 47.9999 14.375 47.9999 15.125V19.75C47.4999 19.375 46.7499 19.125 45.9999 19.125C44.2499 19.125 42.8749 20.375 42.7499 22C42.2499 32.875 42.2499 40.625 42.8749 44.875C43.6249 49.875 47.2499 54.75 51.7499 56.875C53.2499 57.5 54.9999 58.125 57.2499 58.125C59.8749 58.125 62.8749 57.375 66.3749 55.125C75.6249 49.25 76.3749 35.625 76.1249 28ZM65.6249 54.125C59.7499 57.875 55.1249 57.125 52.2499 55.75C47.3749 53.5 44.6249 48.5 44.1249 44.75C43.4999 40.5 43.4999 32.875 43.9999 22.125C43.9999 21.25 44.8749 20.5 45.9999 20.5C47.1249 20.5 47.9999 21.25 47.9999 22.25V32.875C47.9999 33.25 48.2499 33.5 48.6249 33.5C48.9999 33.5 49.2499 33.25 49.2499 32.875V15.25C49.2499 14.75 49.4999 14.25 49.8749 13.875C50.2499 13.5 50.8749 13.25 51.4999 13.25C52.7499 13.25 53.6249 14.125 53.7499 15.125C53.8749 16.625 53.8749 18.75 53.9999 21.125C53.9999 21.125 54.2499 27.25 54.1249 30.5C54.1249 30.875 54.3749 31.125 54.7499 31.125C55.1249 31.125 55.3749 30.875 55.3749 30.5C55.3749 26.875 55.3749 24.25 55.2499 21.125V10.625C55.2499 10 55.4999 9.37502 55.9999 8.87502C56.4999 8.37502 57.2499 8.12502 57.9999 8.12502C59.4999 8.12502 60.7499 9.12502 60.7499 10.5V11.5C60.8749 14.875 61.1249 19.625 61.2499 25V26.375C61.2499 27.75 61.2499 29.125 61.2499 30.625C61.2499 31 61.4999 31.25 61.8749 31.25C62.2499 31.25 62.4999 31 62.4999 30.625C62.4999 28.75 62.4999 26.75 62.4999 25V14.75C62.4999 14.125 62.7499 13.625 63.2499 13.125C63.7499 12.625 64.3749 12.5 65.1249 12.5C66.4999 12.5 67.6249 13.5 67.6249 14.625C67.7499 17.75 67.9999 22.5 67.9999 27.375C67.9999 27.625 67.8749 27.75 67.8749 28C67.7499 30.375 67.2499 33.75 65.8749 36.25C63.3749 40.75 62.4999 44.5 62.4999 44.75C62.3749 45.125 62.6249 45.375 62.9999 45.5C63.3749 45.625 63.6249 45.375 63.7499 45C63.7499 45 64.6249 41.25 66.9999 36.875C68.4999 34.125 68.9999 30.625 69.2499 28.125C69.3749 26.75 70.6249 25.625 72.1249 25.625C73.7499 25.625 74.9999 26.75 74.9999 28.125C75.1249 35.375 74.3749 48.5 65.6249 54.125Z" fill="black"/>
<path d="M35.0001 19.25C34.2501 19.25 33.6251 19.5 33.0001 19.875V15.25C33.0001 14.375 32.6251 13.625 32.0001 12.875C31.3751 12.25 30.5001 12 29.5001 12C28.5001 12 27.6251 12.375 27.0001 13V10.625C27.0001 9.62498 26.6251 8.62498 25.7501 7.99998C25.0001 7.24998 24.0001 6.87498 22.8751 6.87498C20.7501 6.87498 19.0001 8.37498 18.8751 10.375V11.375C18.8751 11.75 18.8751 12.125 18.8751 12.375C18.7501 12.25 18.7501 12.125 18.6251 12.125C17.8751 11.5 17.0001 11.125 16.0001 11.125C14.0001 11.125 12.2501 12.625 12.2501 14.5C12.1251 17.25 12.0001 21.125 11.8751 25.375C11.1251 24.75 10.1251 24.375 9.00005 24.375C6.75005 24.375 4.87505 26 4.87505 28.125C4.50005 35.75 5.37505 49.25 14.6251 55.25C18.0001 57.5 21.1251 58.25 23.7501 58.25C25.8751 58.25 27.7501 57.75 29.2501 57C33.7501 54.875 37.5001 50 38.1251 45C38.7501 40.625 38.7501 33 38.2501 22.125C38.1251 20.5 36.7501 19.25 35.0001 19.25ZM36.8751 44.75C36.3751 48.5 33.6251 53.5 28.7501 55.75C25.8751 57.125 21.2501 57.875 15.3751 54.125C6.62505 48.5 5.87505 35.375 6.25005 28.125C6.25005 26.75 7.62505 25.625 9.12505 25.625C10.6251 25.625 11.8751 26.75 12.0001 28.125C12.1251 30.625 12.7501 34.25 14.2501 36.875C16.6251 41.25 17.5001 45 17.5001 45C17.6251 45.375 17.8751 45.5 18.2501 45.5C18.6251 45.375 18.7501 45.125 18.7501 44.75C18.7501 44.625 17.8751 40.875 15.3751 36.25C14.0001 33.75 13.5001 30.375 13.3751 28C13.3751 27.75 13.3751 27.625 13.2501 27.375C13.2501 22.5 13.5001 17.75 13.6251 14.625C13.6251 13.375 14.7501 12.5 16.1251 12.5C16.7501 12.5 17.5001 12.75 18.0001 13.125C18.5001 13.5 18.7501 14.125 18.7501 14.75V25C18.7501 26.875 18.7501 28.75 18.7501 30.625C18.7501 31 19.0001 31.25 19.3751 31.25C19.7501 31.25 20.0001 31 20.0001 30.625C20.0001 29.125 20.0001 25 20.0001 25C20.0001 19.625 20.2501 15 20.5001 11.5V10.5C20.5001 9.12498 21.7501 8.12498 23.2501 8.12498C24.0001 8.12498 24.7501 8.37499 25.2501 8.87499C25.7501 9.37499 26.0001 9.99998 26.0001 10.625V21.125C25.8751 24.25 25.7501 26.875 25.8751 30.5C25.8751 30.875 26.1251 31.125 26.5001 31.125C26.8751 31.125 27.1251 30.875 27.1251 30.5C27.1251 27.25 27.2501 21.125 27.2501 21.125C27.3751 18.75 27.3751 16.625 27.5001 15.125C27.5001 14 28.5001 13.25 29.7501 13.25C30.3751 13.25 30.8751 13.5 31.3751 13.875C31.7501 14.25 32.0001 14.75 32.0001 15.25V25.75V32.75C32.0001 33.125 32.2501 33.375 32.6251 33.375C33.0001 33.375 33.2501 33.125 33.2501 32.75V22.125C33.2501 21.125 34.1251 20.375 35.2501 20.375C36.2501 20.375 37.1251 21.125 37.2501 22C37.5001 32.875 37.5001 40.5 36.8751 44.75Z" fill="black"/>
</svg>
