<svg width="81" height="74" viewBox="0 0 81 74" fill="none" xmlns="http://www.w3.org/2000/svg">
<path d="M28.3577 10.1702C24.4011 10.0124 20.5223 11.9586 18.4383 15.5682C15.8401 20.0684 15.6151 26.2474 19.3514 29.7039L24.3929 39.0423L15.6575 36.408C14.9982 35.8111 14.1715 35.3753 13.2063 35.3753H10.7064C8.65047 35.3753 6.95636 37.0693 6.95636 39.1252V41.3934V52.094C6.95636 54.1499 8.65047 55.844 10.7064 55.844H13.2063C15.2622 55.844 16.9563 54.1499 16.9563 52.094V47.6604L36.4192 54.0228C36.44 54.0322 36.4613 54.037 36.4827 54.0417C38.4688 54.5738 40.5475 53.3773 41.0799 51.3903L41.6781 49.1539L41.6535 49.2295C41.7579 48.9177 41.8352 48.5723 41.8513 48.2041C41.8602 48.0066 41.852 47.7888 41.822 47.5571C41.7481 46.9397 41.5185 46.3722 41.1896 45.892L41.258 45.9993L37.5886 39.261L45.7307 44.2171C46.4594 47.2347 47.4264 50.1958 48.4064 53.138C49.1952 54.9332 51.4808 55.8755 53.2966 55.1034C54.7356 54.7259 56.4247 54.4911 57.3176 53.1453C58.1633 51.9921 58.1345 50.4445 57.6496 49.1536C57.3259 47.947 57.004 46.7396 56.6804 45.533C58.9155 44.6762 61.0087 43.1009 62.2883 40.8846C65.3195 35.6343 63.3819 28.8773 58.0207 25.782L33.653 11.7148C31.9775 10.7474 30.1562 10.2419 28.3577 10.1702ZM28.2601 12.6702C29.6607 12.726 31.0801 13.1148 32.4032 13.8787L56.7709 27.9461C61.0052 30.3908 62.4648 35.5835 60.1253 39.6356C59.1876 41.2597 57.6489 42.4398 56.0336 43.122C55.6651 41.7483 55.296 40.3744 54.9276 39.0008C55.4377 37.2218 56.0871 35.478 56.4974 33.6737C56.7499 31.6564 55.1146 29.7097 53.1185 29.4793C52.4759 29.3083 51.8363 29.1278 51.1898 28.9715C49.0895 28.6276 46.9309 30.1569 46.5121 32.2357C45.5037 35.0019 44.4019 37.9597 45.0472 40.9442L34.9911 34.8772C33.898 34.2457 32.6643 35.4479 33.2674 36.557L39.0609 47.1966C39.0817 47.2344 39.1048 47.2693 39.1293 47.3038C39.2511 47.4819 39.3219 47.6671 39.3441 47.8556C39.3449 47.865 39.3454 47.8698 39.3466 47.8792C39.3542 47.9355 39.3556 48.0087 39.3518 48.099C39.3466 48.1982 39.3296 48.3058 39.286 48.4358C39.277 48.4594 39.2689 48.4858 39.2614 48.5113L38.6632 50.7452C38.4782 51.4316 37.8229 51.8095 37.1349 51.6266L16.0949 44.7491C15.2866 44.4851 14.4563 45.088 14.4567 45.9382V52.0953C14.4567 52.8094 13.9208 53.3453 13.2067 53.3453H10.7067C9.99258 53.3453 9.4567 52.8094 9.4567 52.0953V41.3947V39.1267C9.4567 38.4126 9.99258 37.8766 10.7067 37.8766H13.2067C13.6022 37.8766 13.9281 38.0496 14.1662 38.3406C14.3104 38.5178 14.5004 38.6519 14.7155 38.7289L26.6369 42.4935C27.7176 42.8752 28.6993 41.7224 28.1505 40.7162L21.527 28.4799C21.4548 28.3466 21.3588 28.2276 21.2438 28.1284C18.1147 25.4437 18.5407 20.3897 20.6017 16.8198C22.2101 14.034 25.1788 12.5472 28.2601 12.6702ZM50.5013 31.4202C50.5979 31.4165 50.6964 31.424 50.7943 31.4439C51.7708 31.8076 52.9558 31.791 53.7679 32.4863C54.354 33.3368 53.6747 34.3163 53.4896 35.184C53.1118 36.4027 52.7197 37.6175 52.3837 38.8487C52.5668 40.2539 53.0858 41.5927 53.4017 42.9722C54.1027 45.6251 54.8497 48.2673 55.5135 50.9287C55.5928 51.9683 54.4465 52.3091 53.6312 52.4376C52.765 52.5991 51.6037 53.3114 50.9066 52.44C50.3212 51.4898 50.1941 50.3347 49.7982 49.3004C48.7985 46.009 47.7457 42.6963 47.3617 39.2661C47.2941 36.9646 48.353 34.8533 48.9779 32.6914C49.2037 32.0267 49.8251 31.447 50.5013 31.4202ZM69.7933 40.3729C65.666 40.3729 62.3006 43.748 62.3006 47.8754C62.3006 52.0027 65.666 55.3778 69.7933 55.3778C73.9206 55.3778 77.2958 52.0027 77.2958 47.8754C77.2958 43.748 73.9206 40.3729 69.7933 40.3729ZM69.7933 42.8728C72.5695 42.8728 74.7958 45.0991 74.7958 47.8754C74.7958 50.6516 72.5695 52.8753 69.7933 52.8753C67.0171 52.8753 64.8006 50.6516 64.8006 47.8754C64.8006 45.0991 67.0171 42.8728 69.7933 42.8728ZM4.84702 56.9768C4.58004 56.99 4.32431 57.0884 4.11735 57.2576C3.91039 57.4267 3.76311 57.6579 3.69712 57.9169L3.18198 59.8431L1.48521 66.1712C0.950082 68.1683 2.21545 69.8163 4.28305 69.8163H4.94224C5.63259 69.8163 6.19223 69.2957 6.19224 68.6053C6.19223 67.915 5.63259 67.3553 4.94224 67.3553C4.23984 67.3553 3.85713 66.9793 4.03892 66.3007L5.59653 60.49L6.11167 58.5638C6.15691 58.4033 6.16958 58.2353 6.14895 58.0699C6.12831 57.9044 6.07479 57.7449 5.99153 57.6004C5.90827 57.456 5.79695 57.3295 5.66413 57.2287C5.5313 57.1279 5.37966 57.0548 5.21812 57.0135C5.097 56.9824 4.97191 56.9708 4.84702 56.9768ZM76.2557 56.9864C76.0922 56.9627 75.922 56.9769 75.7528 57.0241C75.0879 57.2112 74.7009 57.9024 74.8885 58.5671L75.4037 60.4933L76.9271 66.1745C77.1089 66.853 76.7604 67.3586 76.058 67.3586H56.5975V67.3397H24.3661V67.3586H9.94222C9.25187 67.3586 8.69222 67.8791 8.69222 68.5694C8.69222 69.2598 9.25187 69.8196 9.94222 69.8196H24.366V69.8385H56.5975V69.8196H76.7171C78.7847 69.8196 80.0501 68.1717 79.515 66.1745L77.8182 59.8431L77.3031 57.9169C77.1734 57.4058 76.7464 57.0519 76.2557 56.9864Z" fill="black"/>
</svg>
